<svg width="28" height="24" viewBox="0 0 28 24" fill="none" xmlns="http://www.w3.org/2000/svg">
<path d="M25.05 2.76246C24.4116 2.12372 23.6535 1.61702 22.8192 1.27132C21.9849 0.925615 21.0906 0.747681 20.1875 0.747681C19.2844 0.747681 18.3901 0.925615 17.5558 1.27132C16.7215 1.61702 15.9634 2.12372 15.325 2.76246L14 4.08746L12.675 2.76246C11.3854 1.47285 9.63629 0.748349 7.8125 0.748349C5.98871 0.748349 4.23962 1.47285 2.95 2.76246C1.66038 4.05208 0.935886 5.80117 0.935886 7.62496C0.935886 9.44875 1.66038 11.1978 2.95 12.4875L14 23.5375L25.05 12.4875C25.6887 11.849 26.1954 11.091 26.5411 10.2567C26.8868 9.42233 27.0648 8.52807 27.0648 7.62496C27.0648 6.72185 26.8868 5.82759 26.5411 4.99327C26.1954 4.15894 25.6887 3.40091 25.05 2.76246Z" fill="#FA3092"/>
</svg>
